<?xml version="1.0" encoding="UTF-8"?>
<svg id="_레이어_1" data-name="레이어_1" xmlns="http://www.w3.org/2000/svg" version="1.1" viewBox="38 49 211 36">
  <!-- Generator: Adobe Illustrator 29.7.1, SVG Export Plug-In . SVG Version: 2.1.1 Build 8)  -->
  <defs>
    <style>
      .st0 {
        fill: #ffffff;
      }
    </style>
  </defs>
  <polygon class="st0" points="175.15 50.81 175.15 83.43 205.76 83.43 205.76 75.96 183.82 75.96 183.82 58.28 205.76 58.28 205.76 50.81 175.15 50.81"/>
  <rect class="st0" x="188.16" y="63.49" width="17.6" height="7.27"/>
  <rect class="st0" x="121.36" y="50.81" width="8.68" height="32.62"/>
  <rect class="st0" x="39.88" y="50.81" width="8.68" height="32.62"/>
  <path class="st0" d="M103.98,50.81h-13.44l-13.96,32.62h9.6l2.67-6.61h16.81l2.67,6.61h9.6l-13.96-32.62ZM98.07,58.06l4.72,11.68h-11.08l4.73-11.68h1.63Z"/>
  <polygon class="st0" points="74.67 83.43 62.35 83.43 49.95 69.19 61.99 69.19 74.67 83.43"/>
  <polygon class="st0" points="74.67 50.81 62.35 50.81 49.95 65.06 61.99 65.06 74.67 50.81"/>
  <path class="st0" d="M247.07,83.43l-8.13-11.48c4.12-1.57,7.04-5.55,7.04-10.21h0c0-6.03-4.89-10.93-10.93-10.93h-22.76v32.62h8.68v-10.77h8.56l7.09,10.77h10.44ZM220.97,58.45h12.69c2.01,0,3.64,1.63,3.64,3.64s-1.63,3.64-3.64,3.64h-12.69v-7.27Z"/>
  <path class="st0" d="M136.71,50.81v32.62h8.68v-10.13h13.76c6.21,0,11.25-5.04,11.25-11.25h0c0-6.21-5.04-11.25-11.25-11.25h-22.44ZM145.38,65.67v-7.22h12.72c1.99,0,3.61,1.62,3.61,3.61h0c0,1.99-1.62,3.61-3.61,3.61h-12.72Z"/>
</svg>
